<svg width="76" height="40" viewBox="0 0 76 40" fill="none" xmlns="http://www.w3.org/2000/svg">
<g id="Atmbersama">
<path id="Shape" fill-rule="evenodd" clip-rule="evenodd" d="M4 0H72C74.2091 0 76 1.79086 76 4V36C76 38.2091 74.2091 40 72 40H4C1.79086 40 0 38.2091 0 36V4C0 1.79086 1.79086 0 4 0ZM75 4C75 2.34315 73.6569 1 72 1H4C2.34315 1 1 2.34315 1 4V36C1 37.6569 2.34315 39 4 39H72C73.6569 39 75 37.6569 75 36V4Z" fill="#CCCCCC"/>
<rect id="Rectangle" x="13" y="8.33008" width="50" height="23.35" fill="#2E3191"/>
<path id="Path" fill-rule="evenodd" clip-rule="evenodd" d="M60.04 22.41H61.44V10.2H60L60.04 22.41Z" fill="white"/>
<path id="Path_2" fill-rule="evenodd" clip-rule="evenodd" d="M50.98 16.42L50.24 17.59L50.2 10.23H50.98H51.6H51.79V15.21L51.6 15.53L50.98 16.42Z" fill="white"/>
<path id="Path_3" fill-rule="evenodd" clip-rule="evenodd" d="M48.68 21.71L48.06 22.65H48.68H50.31L50.98 21.59L51.6 20.66L58.45 10.2H56.42L51.79 17.39V16.89L51.6 17.16L50.98 18.09L48.68 21.71Z" fill="white"/>
<path id="Path_4" fill-rule="evenodd" clip-rule="evenodd" d="M42.03 16.81L38.52 22.1L38.56 22.96H39.73L42.03 19.49L48.06 10.23H46.35L42.03 16.81Z" fill="white"/>
<path id="Path_5" fill-rule="evenodd" clip-rule="evenodd" d="M42.03 22.96H40.86L42.03 21.17L48.68 10.86L49.07 10.23H49.27V19.07L48.68 19.96L47.51 21.79V15.8L42.92 22.96H42.03Z" fill="white"/>
<path id="Path_6" fill-rule="evenodd" clip-rule="evenodd" d="M34.05 11.67H30.32L31.13 10.23H34.05H42.03H45.53L44.48 11.63H42.03L34.05 11.67Z" fill="white"/>
<path id="Path_7" fill-rule="evenodd" clip-rule="evenodd" d="M34.05 16.93L30.04 23.04H29.07V21.98L34.05 14.16L34.13 14.05H34.05H29.3L29.19 13.58L29.77 12.57L34.05 12.53H36.89L34.05 16.93Z" fill="white"/>
<path id="Path_8" fill-rule="evenodd" clip-rule="evenodd" d="M34.05 18.56L31.17 23.04H33.51L34.05 22.14L38.84 14.09H42.03H42.69L43.9 12.45L42.03 12.49L37.94 12.53L34.05 18.56Z" fill="white"/>
<path id="Path_9" fill-rule="evenodd" clip-rule="evenodd" d="M26.93 22.88H28.68V10.23H26.85L26.93 22.88Z" fill="white"/>
<path id="Path_10" fill-rule="evenodd" clip-rule="evenodd" d="M20.55 15.72L15.84 22.88H14.56V21.98L20.55 12.8L22.22 10.23H23.35H24.13L23.35 11.44L20.55 15.72Z" fill="white"/>
<path id="Shape_2" fill-rule="evenodd" clip-rule="evenodd" d="M20.55 17.35L20.01 18.21H26.01V10.21H25.11L23.35 13L20.55 17.32V17.35ZM23.35 16.96H22.57L24.2 14.35H24.51V17L23.35 16.96Z" fill="white"/>
<path id="Path_11" fill-rule="evenodd" clip-rule="evenodd" d="M51.6 22.3699L59.15 10.6599L59.11 22.4099H57.51V15.8799L53.35 22.6499H51.6H51.41L51.6 22.3699Z" fill="white"/>
<path id="Shape_3" fill-rule="evenodd" clip-rule="evenodd" d="M58.76 27.43H59.76L58.76 25.33L57.83 27.47L58.76 27.43ZM13.66 24H16.46C16.8763 23.9754 17.2937 23.9754 17.71 24C17.9744 24.0308 18.2278 24.1233 18.45 24.27C18.6568 24.3929 18.8397 24.5521 18.99 24.74C19.1109 24.9391 19.1765 25.167 19.18 25.4C19.1854 25.6717 19.0891 25.9356 18.91 26.14C18.7379 26.3812 18.4923 26.5601 18.21 26.65C18.5836 26.7256 18.9294 26.9019 19.21 27.16C19.4355 27.4014 19.5606 27.7196 19.56 28.05C19.5556 28.3135 19.4757 28.5703 19.33 28.79C19.1771 29.0199 18.9799 29.217 18.75 29.37C18.4404 29.532 18.099 29.6241 17.75 29.64C17.3238 29.6683 16.8962 29.6683 16.47 29.64H13.67V24H13.66ZM16.46 25H15.1V26.32H16.46C16.653 26.3053 16.8469 26.3053 17.04 26.32C17.2456 26.3035 17.4445 26.2384 17.62 26.13C17.7453 26.0061 17.814 25.8361 17.81 25.66C17.8045 25.4975 17.7364 25.3434 17.62 25.23C17.475 25.1131 17.2961 25.0464 17.11 25.04L16.46 25ZM16.46 27.26H15.1V28.78H17.36C17.5505 28.7608 17.7295 28.6801 17.87 28.55C18.0112 28.4201 18.0818 28.2306 18.06 28.04C18.0621 27.8881 18.0205 27.7388 17.94 27.61C17.8032 27.4891 17.6433 27.3973 17.47 27.34C17.1402 27.2792 16.8052 27.2524 16.47 27.26H16.46ZM20.74 29.75V24H25.92V25H22.14V26.28H25.64V27.21H22.14V28.77H26V29.77L20.74 29.75ZM30.08 25H28.68V26.44H30.08C30.3914 26.4334 30.7007 26.3863 31 26.3C31.153 26.2717 31.2912 26.1902 31.39 26.07C31.5058 25.9583 31.5647 25.8001 31.55 25.64C31.554 25.4638 31.4853 25.2938 31.36 25.17C31.207 25.041 31.0189 24.9609 30.82 24.94L30.08 25ZM30.08 27.68C29.9518 27.5678 29.8067 27.4766 29.65 27.41C29.4173 27.3858 29.1827 27.3858 28.95 27.41H28.68V29.78H27.24V24H30.24C30.7882 23.975 31.3371 24.0288 31.87 24.16C32.1789 24.2564 32.451 24.4448 32.65 24.7C32.8585 24.9488 32.9687 25.2654 32.96 25.59C32.9635 26.0032 32.7929 26.3988 32.49 26.68C32.0989 26.9841 31.6246 27.162 31.13 27.19C31.403 27.3181 31.6531 27.4904 31.87 27.7C32.1768 27.9787 32.4518 28.2906 32.69 28.63L33.55 29.72H31.83L30.83 28.47C30.6094 28.1741 30.3617 27.8996 30.09 27.65L30.08 27.68ZM33.93 27.87L35.33 27.79C35.3874 28.119 35.5702 28.413 35.84 28.61C36.1406 28.7939 36.4877 28.8876 36.84 28.88C37.1887 28.9037 37.5367 28.8237 37.84 28.65C38.05 28.5311 38.1828 28.3112 38.19 28.07C38.1956 27.9455 38.1347 27.8275 38.03 27.76C37.8961 27.6139 37.716 27.5185 37.52 27.49L36.39 27.26C35.8233 27.1754 35.2792 26.9782 34.79 26.68C34.4066 26.4314 34.1737 26.0069 34.17 25.55C34.1527 25.2451 34.2654 24.9472 34.48 24.73C34.6909 24.443 34.9949 24.238 35.34 24.15C35.7749 23.9887 36.2362 23.9107 36.7 23.92C37.4036 23.8766 38.1031 24.055 38.7 24.43C39.1372 24.6942 39.4032 25.1691 39.4 25.68H38C37.9531 25.4314 37.8137 25.2099 37.61 25.06C37.3345 24.9214 37.028 24.856 36.72 24.87C36.3762 24.8523 36.0333 24.9175 35.72 25.06C35.5816 25.142 35.4948 25.2892 35.49 25.45C35.5001 25.5891 35.5897 25.7099 35.72 25.76C36.1129 25.9822 36.5499 26.1153 37 26.15C37.5202 26.2403 38.0295 26.3844 38.52 26.58C38.8237 26.7062 39.0916 26.9054 39.3 27.16C39.6892 27.7079 39.6892 28.442 39.3 28.99C39.0552 29.2808 38.7326 29.4959 38.37 29.61C37.8675 29.7774 37.3394 29.8553 36.81 29.84C36.1065 29.882 35.4074 29.7037 34.81 29.33C34.3353 28.9729 34.0251 28.4392 33.95 27.85L33.93 27.87ZM43.58 25.38L42.65 27.52H44.56L43.63 25.42L43.58 25.38ZM43.58 28.45H42.18L41.6 29.73H40.12L42.84 24H44.32L47.12 29.72H45.61L45 28.4L43.58 28.45ZM47.86 29.73V24H50L51.28 27.89L52.49 24H54.59V29.72H53.31V25.18L51.91 29.69H50.55L49.19 25.18V29.69L47.86 29.73ZM58.75 25.33V24H59.53L62.33 29.72H60.78L60.16 28.44H57.4L56.82 29.72H55.3L58 24H58.74L58.75 25.33Z" fill="white"/>
<path id="Path_12" fill-rule="evenodd" clip-rule="evenodd" d="M19.53 19.1001L26 19.0701V22.8701H24.46V20.7501H20.52L19.23 22.8801H16.97L19.42 19.1101H19.53V19.1001Z" fill="white"/>
</g>
</svg>
