<svg width="76" height="40" viewBox="0 0 76 40" fill="none" xmlns="http://www.w3.org/2000/svg">
<g id="Mastercard">
<path id="Shape" fill-rule="evenodd" clip-rule="evenodd" d="M4 0H72C74.2091 0 76 1.79086 76 4V36C76 38.2091 74.2091 40 72 40H4C1.79086 40 0 38.2091 0 36V4C0 1.79086 1.79086 0 4 0ZM75 4C75 2.34315 73.6569 1 72 1H4C2.34315 1 1 2.34315 1 4V36C1 37.6569 2.34315 39 4 39H72C73.6569 39 75 37.6569 75 36V4Z" fill="#CCCCCC"/>
<g id="layer1">
<g id="g10305">
<path id="path2268" d="M61 19.9999C61.1349 25.0062 58.5413 29.6909 54.2268 32.2338C49.9124 34.7767 44.5576 34.7767 40.2431 32.2338C35.9287 29.6909 33.335 25.0062 33.47 19.9999C33.335 14.9937 35.9287 10.3089 40.2431 7.76605C44.5576 5.22317 49.9124 5.22317 54.2268 7.76605C58.5413 10.3089 61.1349 14.9937 61 19.9999Z" fill="#FF9900"/>
<path id="path1350" d="M28.68 6.22999C22.533 6.25121 17.1445 10.3442 15.4751 16.2602C13.8056 22.1762 16.2596 28.4822 21.4887 31.7137C26.7179 34.9452 33.4555 34.3193 38 30.18C38.5019 29.7248 38.9698 29.2335 39.4 28.71H36.61C36.2464 28.2587 35.9124 27.7844 35.61 27.29H40.47C40.7662 26.8166 41.0333 26.3257 41.27 25.82H34.78C34.559 25.3482 34.3654 24.864 34.2 24.37H41.82C42.6042 22.0126 42.7389 19.4875 42.21 17.06H33.8C33.9035 16.5699 34.0336 16.0858 34.19 15.61H41.81C41.6417 15.1091 41.4447 14.6183 41.22 14.14H34.78C35.0128 13.6407 35.2767 13.1564 35.57 12.69H40.43C40.106 12.177 39.7486 11.6859 39.36 11.22H36.65C37.0638 10.7197 37.5151 10.2517 38 9.81999C35.4674 7.5066 32.1601 6.22579 28.73 6.22999H28.68Z" fill="#CC0000"/>
<path id="use9412" fill-rule="evenodd" clip-rule="evenodd" d="M59.625 27.2001L59.62 27.2H59.63L59.625 27.2001ZM59.625 27.2001C59.7005 27.2021 59.7743 27.2226 59.84 27.26C59.9124 27.2984 59.9716 27.3576 60.01 27.43C60.0866 27.5666 60.0866 27.7333 60.01 27.87C59.9743 27.9409 59.9187 28 59.85 28.04C59.7133 28.1165 59.5467 28.1165 59.41 28.04C59.338 28.0011 59.2789 27.942 59.24 27.87C59.1634 27.7333 59.1634 27.5666 59.24 27.43C59.2784 27.3576 59.3376 27.2984 59.41 27.26C59.4757 27.2226 59.5495 27.2021 59.625 27.2001ZM59.6097 27.2656C59.5568 27.2557 59.5024 27.2572 59.45 27.27C59.3905 27.3017 59.3417 27.3504 59.31 27.41C59.2765 27.4676 59.2592 27.5333 59.26 27.6C59.2456 27.6591 59.2456 27.7208 59.26 27.78C59.2927 27.8388 59.3412 27.8873 59.4 27.92C59.5145 27.986 59.6555 27.986 59.77 27.92C59.8292 27.8877 59.8778 27.8391 59.91 27.78C59.9244 27.7208 59.9244 27.6591 59.91 27.6C59.9265 27.5377 59.9265 27.4722 59.91 27.41C59.8783 27.3504 59.8295 27.3017 59.77 27.27C59.7174 27.2568 59.6627 27.2553 59.6097 27.2656ZM59.39 27.89V27.41H59.68C59.6997 27.4049 59.7203 27.4049 59.74 27.41C59.747 27.4328 59.747 27.4571 59.74 27.48C59.7507 27.509 59.7507 27.5409 59.74 27.57C59.7076 27.5814 59.6724 27.5814 59.64 27.57L59.71 27.66L59.77 27.75H59.68V27.67C59.66 27.6289 59.6329 27.5916 59.6 27.56H59.54V27.76H59.46L59.39 27.89ZM59.63 27.49H59.54L59.5 27.58V27.44H59.72C59.7262 27.456 59.7262 27.4739 59.72 27.49H59.63Z" fill="#FCB340"/>
</g>
<g id="g16480">
<g id="g13802">
<path id="path13804" d="M33.34 23.95L33.52 22.7C33.42 22.7 33.27 22.7 33.14 22.7C32.63 22.7 32.57 22.43 32.61 22.23L33.11 19.72H33.89L34 18.35H33.27L33.42 17.49H31.93C31.93 17.49 31.06 22.31 31.06 22.89C31.0132 23.2185 31.1185 23.5505 31.3463 23.7918C31.574 24.0332 31.8993 24.1577 32.23 24.13C32.6068 24.1246 32.9808 24.064 33.34 23.95Z" fill="#000066"/>
<path id="path13806" fill-rule="evenodd" clip-rule="evenodd" d="M34.4478 23.4599C33.9552 22.9615 33.7168 22.2657 33.8 21.5699C33.8 19.7799 34.89 18.1899 36.36 18.1899C36.9413 18.1474 37.5123 18.3605 37.9235 18.7737C38.3348 19.1868 38.5453 19.7588 38.5 20.3399C38.4655 20.7902 38.402 21.2378 38.31 21.6799H35.31C35.31 21.6799 35.04 22.8499 36.61 22.8499C37.1762 22.8155 37.7333 22.6906 38.26 22.4799L38 23.8899C37.464 24.0766 36.8969 24.1581 36.33 24.1299C35.6333 24.205 34.9404 23.9583 34.4478 23.4599ZM37.0426 20.4667C37.0595 20.2847 37.1325 19.4999 36.37 19.4999C35.57 19.4999 35.42 20.4099 35.42 20.4999H37.04C37.04 20.4942 37.0411 20.4828 37.0426 20.4667Z" fill="#000066"/>
<path id="path13808" d="M45.65 23.95L45.91 22.35C45.5316 22.5417 45.1217 22.6637 44.7 22.71C44.2764 22.717 43.871 22.5383 43.5902 22.2211C43.3095 21.9038 43.1815 21.4796 43.24 21.06C43.24 19.33 44.13 18.38 45.13 18.38C45.6101 18.3931 46.0772 18.5385 46.48 18.8L46.72 17.25C46.2852 16.9502 45.7771 16.7739 45.25 16.74C42.96 16.74 41.65 18.33 41.65 21.08C41.65 22.91 42.65 24.15 44.37 24.15C44.8021 24.1243 45.2307 24.0574 45.65 23.95Z" fill="#000066"/>
<path id="path13810" fill-rule="evenodd" clip-rule="evenodd" d="M23.49 18.5301C24.0593 18.3174 24.6623 18.209 25.27 18.2101C25.7948 18.104 26.3392 18.247 26.7442 18.5972C27.1492 18.9474 27.3692 19.4654 27.34 20.0001L26.76 24.0001H25.47V23.4801C25.1083 23.9143 24.5646 24.1548 24 24.1301C23.5982 24.136 23.2135 23.9677 22.945 23.6686C22.6766 23.3695 22.5508 22.9689 22.6 22.5701C22.6 20.9401 23.77 20.4001 25.2 20.4001H25.83C25.8545 20.2779 25.8545 20.1522 25.83 20.0301C25.83 19.5901 25.43 19.5301 24.88 19.5301C24.3355 19.522 23.7939 19.61 23.28 19.7901L23.49 18.5301ZM24.54 22.9001C25.43 22.9001 25.49 21.7401 25.49 21.4901H25.5C25.4848 21.4901 25.4807 21.4882 25.475 21.4856C25.462 21.4797 25.4407 21.4701 25.26 21.4701C24.19 21.4701 23.97 21.9501 23.97 22.3501C23.9638 22.5013 24.0226 22.6479 24.1315 22.753C24.2405 22.8581 24.3891 22.9116 24.54 22.9001Z" fill="#000066"/>
<path id="path13812" d="M28.66 24.1001C28.99 24.1001 30.88 24.1801 30.88 22.2401C30.88 20.3001 29.13 20.7801 29.13 20.0001C29.13 19.6401 29.41 19.5201 29.94 19.5201C30.15 19.5201 30.94 19.5901 30.94 19.5901L31.12 18.3001C30.6751 18.2155 30.2229 18.1753 29.77 18.1801C28.69 18.1801 27.59 18.6101 27.59 20.0901C27.59 21.7701 29.43 21.6001 29.43 22.3101C29.43 22.7801 28.92 22.8201 28.52 22.8201C28.0786 22.807 27.6411 22.733 27.22 22.6001L27 23.9201C27.538 24.0793 28.1003 24.1403 28.66 24.1001Z" fill="#000066"/>
<path id="path13814" fill-rule="evenodd" clip-rule="evenodd" d="M57.48 19L57.74 17L59.27 17.01L58.15 24.01H56.72L56.78 23.49C56.4337 23.8771 55.9393 24.0989 55.42 24.1C54.2 24.1 53.6 22.92 53.6 21.72C53.6 19.86 54.43 18.24 56.06 18.24C56.6211 18.2756 57.1391 18.5529 57.48 19ZM57.1099 20.8546C57.11 20.8497 57.11 20.8449 57.11 20.84V20.88C57.11 20.8715 57.11 20.863 57.1099 20.8546ZM55.93 22.65C56.7249 22.65 57.1052 21.6231 57.1099 20.8546C57.1068 19.9927 56.9438 19.62 56.31 19.62C55.67 19.62 55.16 20.37 55.16 21.51C55.16 22.21 55.4 22.65 55.93 22.65Z" fill="#000066"/>
<path id="path13816" d="M17.34 24L18.23 18.74L18.36 24H19.36L21.24 18.74L20.42 24H21.92L23.08 17H20.7L19.27 21.3V17.04H17.05L15.88 24.04H17.34V24Z" fill="#000066"/>
<path id="path13818" d="M39.92 24.0001C40.35 21.5701 40.5 19.6601 41.74 20.0501C41.9078 19.3004 42.1769 18.5771 42.54 17.9001C42.54 17.9001 42.48 17.8101 42.09 17.8101C41.43 17.8101 40.56 19.1401 40.56 19.1401L40.69 18.3201H39.33L38.41 24.0001H39.92Z" fill="#000066"/>
<g id="use14699">
<path id="path13810-2" fill-rule="evenodd" clip-rule="evenodd" d="M46.94 18.5299C47.5093 18.3172 48.1122 18.2088 48.72 18.2099C49.2463 18.1003 49.7936 18.2416 50.2011 18.5923C50.6086 18.943 50.8299 19.4632 50.8 19.9999L50.22 23.9999H48.93V23.4999C48.5683 23.9342 48.0246 24.1746 47.46 24.1499C47.0525 24.1596 46.6612 23.99 46.3898 23.6858C46.1184 23.3817 45.9941 22.9737 46.05 22.5699C46.05 20.9399 47.22 20.3999 48.65 20.3999H49.28C49.3045 20.2778 49.3045 20.152 49.28 20.0299C49.28 19.5899 48.88 19.5299 48.33 19.5299C47.7855 19.5218 47.2439 19.6099 46.73 19.7899L46.94 18.5299ZM47.99 22.8999C48.88 22.8999 48.94 21.7399 48.94 21.4899C48.9291 21.4899 48.9286 21.4885 48.9278 21.4863C48.9255 21.4806 48.9214 21.4699 48.71 21.4699C47.64 21.4699 47.42 21.9499 47.42 22.3499C47.4138 22.5012 47.4726 22.6478 47.5815 22.7529C47.6904 22.858 47.8391 22.9115 47.99 22.8999Z" fill="#000066"/>
</g>
<path id="use14701" d="M52.22 24C52.45 22.22 52.89 19.71 54.04 20.05C54.22 19.11 54.04 19.11 53.66 19.11C53.3936 19.0945 53.1265 19.0945 52.86 19.11L52.99 18.29H51.63L50.71 24H52.22Z" fill="#000066"/>
</g>
<g id="g10289">
<path id="path4157" d="M33.72 23.51L33.9 22.26C33.8 22.26 33.65 22.26 33.52 22.26C33 22.3 33 22 33 21.83L33.41 19.29H34.19L34.38 17.91H33.65L33.8 17.05H32.32C32.32 17.05 31.45 21.87 31.45 22.45C31.4032 22.7786 31.5086 23.1105 31.7363 23.3519C31.964 23.5933 32.2893 23.7177 32.62 23.69C32.9934 23.6836 33.364 23.623 33.72 23.51Z" fill="white"/>
<path id="path4155" fill-rule="evenodd" clip-rule="evenodd" d="M34.8278 23.02C34.3352 22.5216 34.0968 21.8258 34.18 21.1301C34.18 19.3301 35.27 17.7501 36.8 17.7501C37.3711 17.7229 37.9264 17.9414 38.3259 18.3504C38.7253 18.7594 38.9307 19.3198 38.89 19.8901C38.8554 20.3403 38.792 20.7879 38.7 21.2301H35.7C35.7 21.2301 35.43 22.4001 37 22.4001C37.526 22.3557 38.0403 22.2204 38.52 22.0001L38.26 23.4501C37.7662 23.639 37.2378 23.7208 36.71 23.6901C36.0133 23.7651 35.3204 23.5184 34.8278 23.02ZM37.4226 20.0269C37.4395 19.8449 37.5125 19.0601 36.75 19.0601C36 19.0601 35.8 20.0001 35.8 20.0601H37.42C37.42 20.0544 37.4211 20.043 37.4226 20.0269Z" fill="white"/>
<path id="path4151" d="M46 23.4999L46.26 21.8999C45.8816 22.0917 45.4717 22.2136 45.05 22.2599C44.6264 22.2669 44.221 22.0883 43.9402 21.771C43.6595 21.4537 43.5315 21.0295 43.59 20.6099C43.59 18.8799 44.48 17.9299 45.48 17.9299C45.9601 17.9431 46.4272 18.0884 46.83 18.3499L47.07 16.7999C46.543 16.5919 45.9858 16.4703 45.42 16.4399C43.73 16.4399 42.08 17.9099 42.08 20.6599C42.08 22.4899 42.97 23.6599 44.72 23.6599C45.1508 23.6475 45.5794 23.594 46 23.4999Z" fill="white"/>
<path id="path4149" fill-rule="evenodd" clip-rule="evenodd" d="M23.88 18.0901C24.4493 17.8774 25.0523 17.769 25.66 17.7701C26.1995 17.6432 26.7671 17.7824 27.1866 18.1446C27.6061 18.5067 27.8268 19.0479 27.78 19.6001L27.2 23.6001H25.91V23.0401C25.5365 23.4781 24.9854 23.7242 24.41 23.7101C24.0008 23.7228 23.6067 23.5545 23.333 23.2499C23.0594 22.9454 22.9339 22.5357 22.99 22.1301C22.99 20.5001 24.32 19.9601 25.59 19.9601H26.22C26.2445 19.838 26.2445 19.7122 26.22 19.5901C26.22 19.1501 25.82 19.0901 25.27 19.0901C24.7255 19.082 24.1839 19.17 23.67 19.3501L23.88 18.0901ZM25 22.4601C25.85 22.4601 26 21.3101 26 21.0601C25.9087 21.036 25.8143 21.0258 25.72 21.0301C24.65 21.0301 24.43 21.5101 24.43 21.9101C24.4239 22.0613 24.4827 22.208 24.5916 22.3131C24.7005 22.4181 24.8491 22.4717 25 22.4601Z" fill="white"/>
<path id="path4145" d="M29 23.66C29.33 23.66 31.22 23.74 31.22 21.8C31.22 19.86 29.47 20.34 29.47 19.61C29.47 19.25 29.75 19.13 30.28 19.13C30.49 19.13 31.28 19.2 31.28 19.2L31.46 17.91C31.0151 17.8252 30.5629 17.785 30.11 17.79C29.03 17.79 27.93 18.22 27.93 19.7C27.93 21.38 29.77 21.21 29.77 21.92C29.77 22.39 29.26 22.43 28.86 22.43C28.4186 22.4169 27.9811 22.3429 27.56 22.21L27.36 23.49C27.8922 23.6439 28.4476 23.7014 29 23.66Z" fill="white"/>
<path id="path4139" fill-rule="evenodd" clip-rule="evenodd" d="M57.86 18.6101L58.18 16.6101L59.65 16.6201L58.53 23.6201H57.1L57.16 23.1001C56.8137 23.4872 56.3193 23.709 55.8 23.7101C54.58 23.7101 53.98 22.5301 53.98 21.3301C53.98 19.4701 55.1 17.8501 56.44 17.8501C57.0011 17.8857 57.5191 18.163 57.86 18.6101ZM56.32 22.2501C57.12 22.2501 57.5 21.2101 57.5 20.4401L57.49 20.4301C57.49 19.5801 57.34 19.2201 56.7 19.2201C56.06 19.2201 55.55 19.9701 55.55 21.1101C55.55 21.8101 55.79 22.2501 56.32 22.2501Z" fill="white"/>
<path id="path4133" d="M17.72 23.5801L18.61 18.3201L18.74 23.5801H19.74L21.62 18.3201L20.79 23.5801H22.29L23.45 16.5801H21.14L19.69 20.8601L19.61 16.5801H17.48L16.31 23.5801H17.72Z" fill="white"/>
<path id="path4131" d="M40.3 23.5899C40.73 21.1599 40.81 19.1899 41.82 19.5899C41.9087 18.9982 42.091 18.4243 42.36 17.8899C42.2668 17.8814 42.1731 17.8814 42.08 17.8899C41.42 17.8899 40.94 18.7899 40.94 18.7899L41.07 17.9699H39.71L38.8 23.6499L40.3 23.5899Z" fill="white"/>
<g id="use8523">
<path id="path4149-2" fill-rule="evenodd" clip-rule="evenodd" d="M47.64 18.0901C48.2093 17.8774 48.8123 17.769 49.42 17.7701C49.954 17.6611 50.5081 17.81 50.9154 18.1721C51.3228 18.5342 51.5357 19.067 51.49 19.6101L50.91 23.6101H49.62V23.0501C49.2465 23.488 48.6954 23.7342 48.12 23.7201C47.7125 23.7298 47.3212 23.5601 47.0498 23.256C46.7784 22.9519 46.6542 22.5439 46.71 22.1401C46.71 20.5101 48.04 19.9701 49.31 19.9701H49.94C49.9645 19.848 49.9645 19.7222 49.94 19.6001C49.94 19.1601 49.55 19.1001 49 19.1001C48.4662 19.0923 47.935 19.1769 47.43 19.3501L47.64 18.0901ZM48.73 22.4601C49.58 22.4601 49.73 21.3101 49.73 21.0601C49.6387 21.0361 49.5443 21.026 49.45 21.0301C48.38 21.0301 48.16 21.5101 48.16 21.9101C48.1539 22.0613 48.2126 22.208 48.3216 22.313C48.4305 22.4181 48.5791 22.4716 48.73 22.4601Z" fill="white"/>
</g>
<g id="use8525">
<path id="path4131-2" d="M52.61 23.5899C53.04 21.1599 53.12 19.1899 54.13 19.5899C54.222 18.9976 54.4077 18.4238 54.68 17.8899C54.5869 17.8814 54.4932 17.8814 54.4 17.8899C53.74 17.8899 53.26 18.7899 53.26 18.7899L53.39 17.9699H52L51.09 23.6499L52.61 23.5899Z" fill="white"/>
</g>
<path id="text9407" fill-rule="evenodd" clip-rule="evenodd" d="M59.6208 22.7202L59.61 22.72H59.63L59.6208 22.7202ZM59.6208 22.7202C59.6943 22.7227 59.7661 22.7432 59.83 22.78C59.9013 22.8152 59.9605 22.8709 60 22.94C60.0766 23.0766 60.0766 23.2433 60 23.38C59.9642 23.4509 59.9087 23.51 59.84 23.55C59.7033 23.6266 59.5366 23.6266 59.4 23.55C59.3317 23.5096 59.2762 23.4506 59.24 23.38C59.1614 23.2438 59.1614 23.0761 59.24 22.94C59.2799 22.8713 59.339 22.8157 59.41 22.78C59.4744 22.7433 59.5468 22.7229 59.6208 22.7202ZM59.45 22.79C59.5091 22.7756 59.5708 22.7756 59.63 22.79H59.64C59.6991 22.7752 59.7609 22.7752 59.82 22.79C59.8795 22.8217 59.9282 22.8704 59.96 22.93C60.0261 23.0444 60.0261 23.1855 59.96 23.3C59.9278 23.3591 59.8791 23.4078 59.82 23.44C59.7055 23.5061 59.5645 23.5061 59.45 23.44C59.3908 23.4078 59.3422 23.3591 59.31 23.3C59.2439 23.1855 59.2439 23.0444 59.31 22.93C59.3417 22.8704 59.3905 22.8217 59.45 22.79ZM59.45 23.41V22.93H59.74C59.7597 22.9249 59.7803 22.9249 59.8 22.93C59.8069 22.9528 59.8069 22.9772 59.8 23C59.8107 23.029 59.8107 23.0609 59.8 23.09C59.7676 23.1014 59.7323 23.1014 59.7 23.09L59.77 23.18L59.83 23.27H59.74V23.19C59.72 23.1489 59.6929 23.1117 59.66 23.08H59.6V23.28H59.52L59.45 23.41ZM59.69 23.01H59.6L59.5 23.1V22.96H59.78C59.7873 22.9758 59.7873 22.9941 59.78 23.01H59.69Z" fill="white"/>
</g>
</g>
</g>
</g>
</svg>
