<svg width="76" height="40" viewBox="0 0 76 40" fill="none" xmlns="http://www.w3.org/2000/svg">
<g id="PAYPAL">
<path id="Shape" fill-rule="evenodd" clip-rule="evenodd" d="M4 0H72C74.2091 0 76 1.79086 76 4V36C76 38.2091 74.2091 40 72 40H4C1.79086 40 0 38.2091 0 36V4C0 1.79086 1.79086 0 4 0ZM75 4C75 2.34315 73.6569 1 72 1H4C2.34315 1 1 2.34315 1 4V36C1 37.6569 2.34315 39 4 39H72C73.6569 39 75 37.6569 75 36V4Z" fill="#CCCCCC"/>
<g id="PayPal">
<path id="Shape_2" fill-rule="evenodd" clip-rule="evenodd" d="M30.1055 15.4834H26.686C26.4521 15.4832 26.2529 15.6589 26.2165 15.8973L24.8335 24.9487C24.8206 25.0337 24.8445 25.1202 24.8987 25.1856C24.9529 25.2509 25.0322 25.2884 25.1155 25.2883H26.748C26.982 25.2884 27.1813 25.1125 27.2175 24.8738L27.5905 22.4326C27.6267 22.1941 27.8256 22.0182 28.0595 22.0181H29.142C31.3945 22.0181 32.6945 20.8929 33.034 18.6633C33.187 17.6878 33.0405 16.9213 32.598 16.3846C32.112 15.7951 31.25 15.4834 30.1055 15.4834ZM30.5 18.7892C30.313 20.0558 29.3755 20.0558 28.469 20.0558H27.953L28.315 17.6904C28.3369 17.5474 28.4563 17.4421 28.5965 17.4421H28.833C29.4505 17.4421 30.033 17.4421 30.334 17.8055C30.5135 18.0222 30.5685 18.3443 30.5 18.7892ZM38.6895 18.7484H40.327C40.4102 18.7484 40.4892 18.786 40.5432 18.8514C40.5972 18.9167 40.6207 19.0032 40.6075 19.088L39.7225 24.8733C39.6863 25.112 39.487 25.2879 39.253 25.2878H37.778C37.6946 25.2877 37.6155 25.2498 37.5614 25.1843C37.5074 25.1188 37.4838 25.0321 37.497 24.9471L37.57 24.4775C37.57 24.4775 36.7615 25.4452 35.3035 25.4452C34.454 25.4452 33.74 25.1923 33.241 24.5853C32.697 23.9252 32.4745 22.9786 32.631 21.9887C32.932 20.0042 34.4775 18.5895 36.287 18.5895C37.076 18.5895 37.8665 18.767 38.221 19.2981L38.3355 19.4695L38.408 18.9967C38.4299 18.8537 38.5493 18.7484 38.6895 18.7484ZM38.0445 22.0382C37.8865 23.0039 37.144 23.6522 36.197 23.6522C35.7215 23.6522 35.3415 23.4948 35.0975 23.1964C34.8555 22.9002 34.7635 22.4785 34.8405 22.0088C34.988 21.0514 35.743 20.382 36.6755 20.382C37.1405 20.382 37.5185 20.5415 37.7675 20.8424C38.017 21.1464 38.116 21.5706 38.0445 22.0382ZM47.4025 18.7484H49.048C49.154 18.7485 49.2513 18.8093 49.3004 18.9063C49.3496 19.0033 49.3425 19.1204 49.282 19.2104L43.809 27.3652C43.7202 27.4973 43.5743 27.576 43.4185 27.5758H41.775C41.6684 27.5758 41.5706 27.5144 41.5217 27.4166C41.4727 27.3188 41.4808 27.201 41.5425 27.1113L43.2465 24.6282L41.434 19.1376C41.4043 19.0476 41.4185 18.9484 41.4722 18.8711C41.5259 18.7939 41.6124 18.7482 41.7045 18.7484H43.3215C43.5316 18.7485 43.7169 18.8907 43.7775 19.0984L44.7395 22.4145L47.009 18.9637C47.0977 18.8292 47.2449 18.7487 47.4025 18.7484Z" fill="#253B80"/>
<path id="Shape_3" fill-rule="evenodd" clip-rule="evenodd" d="M65.244 24.9487L66.6475 15.7317C66.6694 15.5888 66.7884 15.4834 66.9285 15.4829H68.5085C68.5918 15.4831 68.6708 15.5208 68.7249 15.5862C68.7789 15.6516 68.8025 15.7381 68.7895 15.823L67.4055 24.8739C67.3695 25.1128 67.1705 25.2883 66.936 25.2883H65.525C65.4418 25.2883 65.3627 25.2507 65.3087 25.1854C65.2546 25.1201 65.231 25.0336 65.244 24.9487ZM54.496 15.4834H51.076C50.8423 15.4835 50.6434 15.6591 50.607 15.8974L49.224 24.9487C49.211 25.0336 49.2346 25.1201 49.2887 25.1854C49.3427 25.2507 49.4218 25.2883 49.505 25.2883H51.26C51.4236 25.2881 51.5627 25.1651 51.588 24.9983L51.9805 22.4326C52.0167 22.1941 52.2157 22.0183 52.4495 22.0181H53.5315C55.7845 22.0181 57.084 20.893 57.424 18.6633C57.5775 17.6878 57.43 16.9214 56.9875 16.3846C56.502 15.7952 55.6405 15.4834 54.496 15.4834ZM54.8905 18.7892C54.704 20.0558 53.7665 20.0558 52.8595 20.0558H52.344L52.7065 17.6904C52.728 17.5474 52.8473 17.442 52.9875 17.4421H53.224C53.841 17.4421 54.424 17.4421 54.725 17.8055C54.9045 18.0223 54.959 18.3443 54.8905 18.7892ZM63.0805 18.7485H64.717C64.8004 18.7484 64.8796 18.7859 64.934 18.8512C64.9883 18.9165 65.0122 19.003 64.9995 19.0881L64.114 24.8734C64.0778 25.1119 63.8789 25.2877 63.645 25.2878H62.1705C62.087 25.288 62.0076 25.2503 61.9533 25.1847C61.899 25.1192 61.8753 25.0323 61.8885 24.9472L61.9615 24.4775C61.9615 24.4775 61.153 25.4452 59.695 25.4452C58.8455 25.4452 58.1325 25.1923 57.6325 24.5854C57.0885 23.9252 56.867 22.9787 57.023 21.9887C57.324 20.0042 58.869 18.5895 60.6785 18.5895C61.4675 18.5895 62.2575 18.767 62.612 19.2981L62.727 19.4695L62.7995 18.9967C62.8208 18.8536 62.9403 18.7481 63.0805 18.7485ZM62.4345 22.0383C62.2775 23.0039 61.534 23.6522 60.587 23.6522C60.1125 23.6522 59.7315 23.4948 59.4875 23.1965C59.2455 22.9002 59.1545 22.4785 59.2305 22.0088C59.379 21.0514 60.133 20.382 61.0655 20.382C61.5305 20.382 61.9085 20.5415 62.1575 20.8424C62.408 21.1464 62.507 21.5707 62.4345 22.0383Z" fill="#179BD7"/>
<path id="Path" d="M10.633 27.0473L10.8945 25.3327L10.312 25.3188H7.53052L9.46352 12.6669C9.47541 12.587 9.54221 12.5281 9.62052 12.5286H14.3105C15.8675 12.5286 16.942 12.863 17.503 13.5231C17.766 13.8328 17.9335 14.1564 18.0145 14.5126C18.0995 14.8862 18.101 15.3327 18.018 15.8772L18.012 15.917V16.2659L18.275 16.4197C18.4758 16.5247 18.6563 16.6667 18.8075 16.8388C19.0325 17.1035 19.178 17.4401 19.2395 17.839C19.303 18.2493 19.282 18.7376 19.178 19.2904C19.058 19.9262 18.864 20.4801 18.602 20.9332C18.3709 21.3392 18.06 21.6908 17.6895 21.9655C17.3415 22.2204 16.928 22.414 16.4605 22.5379C16.0075 22.6597 15.491 22.7211 14.9245 22.7211H14.5595C14.2985 22.7211 14.045 22.8181 13.846 22.9921C13.6473 23.1678 13.5155 23.4107 13.474 23.6775L13.4465 23.8318L12.9845 26.8537L12.9635 26.9647C12.958 26.9998 12.9485 27.0173 12.9345 27.0292C12.921 27.0407 12.904 27.047 12.8865 27.0473H10.633Z" fill="#253B80"/>
<path id="Path_2" d="M18.524 15.9573C18.51 16.0497 18.494 16.1441 18.476 16.2411C17.8575 19.5191 15.7415 20.6515 13.039 20.6515H11.663C11.3325 20.6515 11.054 20.8992 11.0025 21.2357L10.298 25.8479L10.0985 27.1552C10.0824 27.2602 10.1116 27.3671 10.1785 27.4479C10.2453 27.5287 10.3431 27.5753 10.446 27.5753H12.8865C13.1755 27.5753 13.421 27.3586 13.4665 27.0644L13.4905 26.9364L13.95 23.9263L13.9795 23.7611C14.0245 23.4659 14.2705 23.2491 14.5595 23.2491H14.9245C17.289 23.2491 19.14 22.2582 19.681 19.3906C19.907 18.1926 19.79 17.1924 19.192 16.4889C19.0025 16.2713 18.7761 16.0911 18.524 15.9573V15.9573Z" fill="#179BD7"/>
<path id="Path_3" d="M17.877 15.6908C17.6795 15.6318 17.4786 15.5858 17.2755 15.553C16.8742 15.4893 16.4685 15.4587 16.0625 15.4616H12.3865C12.0974 15.4614 11.8514 15.6788 11.807 15.9736L11.025 21.0864L11.0025 21.2355C11.0528 20.8992 11.3333 20.6511 11.663 20.6513H13.039C15.7415 20.6513 17.8575 19.5184 18.476 16.241C18.4945 16.1439 18.51 16.0495 18.524 15.9571C18.3608 15.8687 18.1907 15.7947 18.0155 15.7357C17.9696 15.7199 17.9234 15.705 17.877 15.6908Z" fill="#222D65"/>
<path id="Path_4" d="M11.807 15.9737C11.851 15.6787 12.0974 15.4613 12.3865 15.4622H16.0625C16.498 15.4622 16.9045 15.4916 17.2755 15.5535C17.5266 15.5943 17.7742 15.6552 18.016 15.7357C18.1985 15.7982 18.368 15.872 18.5245 15.9572C18.7085 14.7458 18.523 13.921 17.8885 13.1742C17.189 12.352 15.9265 12 14.311 12H9.62102C9.29102 12 9.00952 12.2477 8.95852 12.5848L7.00502 25.3667C6.9866 25.4868 7.02001 25.6092 7.09646 25.7017C7.1729 25.7942 7.28473 25.8476 7.40252 25.8477H10.298L11.025 21.0865L11.807 15.9737Z" fill="#253B80"/>
</g>
</g>
</svg>
