<svg width="76" height="40" viewBox="0 0 76 40" fill="none" xmlns="http://www.w3.org/2000/svg">
<g id="Visa">
<path id="Shape" fill-rule="evenodd" clip-rule="evenodd" d="M4 0H72C74.2091 0 76 1.79086 76 4V36C76 38.2091 74.2091 40 72 40H4C1.79086 40 0 38.2091 0 36V4C0 1.79086 1.79086 0 4 0ZM75 4C75 2.34315 73.6569 1 72 1H4C2.34315 1 1 2.34315 1 4V36C1 37.6569 2.34315 39 4 39H72C73.6569 39 75 37.6569 75 36V4Z" fill="#CCCCCC"/>
<g id="g4158">
<path id="polygon9" d="M34.8 27.54H30.91L33.34 12.51H37.23L34.8 27.54Z" fill="#00579F"/>
<path id="path11" d="M48.9 12.8701C47.7866 12.4413 46.603 12.2243 45.41 12.2301C41.57 12.2301 38.87 14.2301 38.85 17.2301C38.85 19.3901 40.79 20.5901 42.26 21.3101C43.73 22.0301 44.26 22.5301 44.26 23.1801C44.26 24.1801 43.04 24.6501 41.92 24.6501C40.6562 24.6855 39.4031 24.4109 38.27 23.8501L37.76 23.6101L37.23 27.0001C38.6137 27.5366 40.0859 27.808 41.57 27.8001C45.65 27.8001 48.31 25.8001 48.34 22.6601C48.34 20.9501 47.34 19.6601 45.08 18.5601C43.72 17.8701 42.89 17.4101 42.89 16.7001C42.89 15.9901 43.59 15.4001 45.13 15.4001C46.1195 15.3827 47.1003 15.5878 48 16.0001L48.35 16.1601L48.88 12.9101L48.9 12.8701Z" fill="#00579F"/>
<path id="path13" fill-rule="evenodd" clip-rule="evenodd" d="M55.86 12.51H58.86V12.54L62 27.54H58.36C58.36 27.54 58.01 25.81 57.9 25.28H52.9L52.08 27.54H48L53.86 13.76C54.162 12.9347 54.9858 12.4198 55.86 12.51ZM55.62 18L54.06 22.22L57.3 22.21C57.14 21.46 56.4 17.86 56.4 17.86L56.13 16.56C55.94 17.12 55.62 18 55.62 18Z" fill="#00579F"/>
<path id="path15" d="M27.66 12.51L23.86 22.76L23.44 20.68C22.4908 17.985 20.5731 15.7394 18.06 14.38L21.55 27.53H25.66L31.77 12.53H27.66V12.51Z" fill="#00579F"/>
<path id="path17" d="M20.32 12.5099H14.06L14 12.8099C18.88 14.0599 22.11 17.0699 23.44 20.6799L22.08 13.7699C21.9053 12.9594 21.1436 12.4141 20.32 12.5099Z" fill="#FAA61A"/>
</g>
</g>
</svg>
