<svg width="124" height="24" viewBox="0 0 124 24" fill="none" xmlns="http://www.w3.org/2000/svg">
<path fill-rule="evenodd" clip-rule="evenodd" d="M41.79 5.76C41.79 4.31999 42.88 3.6 45.06 3.6C46.22 3.6 48.21 3.76 51.03 4.08L51.36 0.81L50.28 0.6C48 0.199998 46.12 0 44.64 0C42.48 0 40.78 0.499995 39.54 1.5C38.3 2.50001 37.68 4.01999 37.68 6.06C37.68 7.68001 38.155 8.94499 39.105 9.855C40.055 10.765 41.69 11.55 44.01 12.21C45.47 12.63 46.445 13.02 46.935 13.38C47.425 13.74 47.67 14.24 47.67 14.88C47.67 16.64 46.61 17.52 44.49 17.52C43.07 17.52 41.02 17.34 38.34 16.98L37.92 20.19L39 20.4C41.26 20.88 43.17 21.12 44.73 21.12C46.83 21.12 48.53 20.57 49.83 19.47C51.13 18.37 51.78 16.75 51.78 14.61C51.78 12.93 51.38 11.685 50.58 10.875C49.78 10.065 48.385 9.34 46.395 8.7C44.405 8.06 43.14 7.57 42.6 7.23C42.06 6.89 41.79 6.4 41.79 5.76ZM4.14 14.82H7.5C9.88001 14.82 11.685 14.185 12.915 12.915C14.145 11.645 14.76 9.82001 14.76 7.44C14.76 2.71998 12.34 0.36 7.5 0.36H0V20.76H4.14V14.82ZM7.47 11.28H4.14V3.9H7.47C8.53001 3.9 9.31 4.175 9.81 4.725C10.31 5.275 10.56 6.17999 10.56 7.44C10.56 10 9.53001 11.28 7.47 11.28ZM22.38 13.95C22.38 16.33 23.59 17.52 26.01 17.52C28.43 17.52 29.64 16.33 29.64 13.95V0.36H33.78V13.86C33.78 16.36 33.135 18.195 31.845 19.365C30.555 20.535 28.61 21.12 26.01 21.12C23.41 21.12 21.465 20.535 20.175 19.365C18.885 18.195 18.24 16.36 18.24 13.86V0.36H22.38V13.95ZM54.03 4.02V0.36H69.03V4.02H63.63V20.76H59.49V4.02H54.03ZM74.16 0.36L69.57 20.76H73.71L74.52 17.07H81.66L82.47 20.76H86.61L82.02 0.36H74.16ZM77.37 3.78L75.3 13.47H80.88L78.81 3.78H77.37ZM90.09 20.76H94.23V12.93L96.99 12.63L100.41 20.76H105.18L100.62 10.59L105.06 0.36H100.35L96.99 9.03L94.23 9.33V0.36H90.09V20.76ZM106.92 20.76L111.51 0.36H119.37L123.96 20.76H119.82L119.01 17.07H111.87L111.06 20.76H106.92ZM112.65 13.47L114.72 3.78H116.16L118.23 13.47H112.65Z" fill="black" fill-opacity="0.8"/>
<path fill-rule="evenodd" clip-rule="evenodd" d="M22.78 15.76H29.78V23.76L26.28 21.76L22.78 23.76V15.76Z" fill="#FBCF1D"/>
</svg>
