<svg width="24" height="24" viewBox="0 0 24 24" fill="none" xmlns="http://www.w3.org/2000/svg">
<path opacity="0.3" d="M12 4.56205L7.76825 9.64018C7.41468 10.0645 6.78412 10.1218 6.35984 9.76822C5.93556 9.41466 5.87824 8.78409 6.2318 8.35982L11.2318 2.35982C11.6316 1.88006 12.3685 1.88006 12.7682 2.35982L17.7682 8.35982C18.1218 8.78409 18.0645 9.41466 17.6402 9.76822C17.2159 10.1218 16.5854 10.0645 16.2318 9.64018L12 4.56205Z" fill="black"/>
<path fill-rule="evenodd" clip-rule="evenodd" d="M3.49994 9C2.78636 9 2.30241 9.72593 2.57686 10.3846L6.23071 19.1538C6.69652 20.2718 7.78884 21 8.99994 21H14.9999C16.211 21 17.3034 20.2718 17.7692 19.1538L21.423 10.3846C21.6975 9.72593 21.2135 9 20.4999 9H3.49994ZM13.9999 15C13.9999 16.1046 13.1045 17 11.9999 17C10.8954 17 9.99994 16.1046 9.99994 15C9.99994 13.8954 10.8954 13 11.9999 13C13.1045 13 13.9999 13.8954 13.9999 15Z" fill="black"/>
</svg>
